# xmcd CD database file
#
# Track frame offsets:
#	150
#	11861
#	20990
#	31262
#	42413
#	50835
#	61709
#	70663
#	80677
#	90431
#	98682
#	107626
#	117885
#	127832
#	138348
#	146072
#	154029
#	166105
#	175497
#	183241
#
# Disc length: 2532 seconds
#
# Revision: 1
# Processed by: cddbd v1.5.1PL2 Copyright (c) Steve Scherf et al.
# Submitted via: CDex 1.51
#
DISCID=0a09e214
DTITLE=Johnny Cash - The Sun Record Years - Disc 2
DYEAR=2003
DGENRE=Country
TTITLE0=So Doggone Lonesome
TTITLE1=I Couldn't Keep From Crying
TTITLE2=There You Go
TTITLE3=Don't Make Me Go
TTITLE4=Country Boy
TTITLE5=I Heard That Lonesome Whistle Blow
TTITLE6=Remember Me (I'm The One Who Loves You)
TTITLE7=Goodbye Little Darlin'
TTITLE8=Born To Loose
TTITLE9=Always Alone
TTITLE10=Life Goes On
TTITLE11=You Win Again
TTITLE12=I Could Never Be Ashamed Of You
TTITLE13=Cold, Cold Heart
TTITLE14=Hey Good Lookin'
TTITLE15=I Can't Help It
TTITLE16=Give My Love To Rose
TTITLE17=New Mexico
TTITLE18=If The Good Lord's Willing
TTITLE19=Leave That Junk Alone
EXTD=YEAR: 2003
EXTT0=
EXTT1=
EXTT2=
EXTT3=
EXTT4=
EXTT5=
EXTT6=
EXTT7=
EXTT8=
EXTT9=
EXTT10=
EXTT11=
EXTT12=
EXTT13=
EXTT14=
EXTT15=
EXTT16=
EXTT17=
EXTT18=
EXTT19=
PLAYORDER=
